<svg width="300" height="301" viewBox="0 0 300 301" fill="none" xmlns="http://www.w3.org/2000/svg">
<path d="M0 0.5H300V300.5H0V0.5Z" fill="black"/>
<path fill-rule="evenodd" clip-rule="evenodd" d="M40 150L150 40L260 150L150 260L40 150ZM128.731 75.0193L203.496 149.785L210.371 142.91L135.606 68.1443L150 53.75L246.25 150L211.445 184.805L136.68 110.039L129.805 116.914L204.57 191.68L170.625 225.625L95.8594 150.859L88.9844 157.734L163.75 232.5L150 246.25L53.75 150L87.9103 115.84L162.676 190.605L169.551 183.73L94.7853 108.965L128.731 75.0193Z" fill="#00C624"/>
</svg>
