<svg width="200" height="200" viewBox="0 0 200 200" fill="none" xmlns="http://www.w3.org/2000/svg">
<rect width="200" height="200" rx="100" fill="#5D5FEF"/>
<path d="M146.313 34.1602C147.265 41.1452 148.43 47.1778 148.853 53.3163C149.17 58.5022 146.842 62.418 141.55 64.2173C123.135 70.3557 104.825 76.3883 86.5161 82.7384C82.6001 84.1142 81.436 82.9501 81.0124 79.3517C80.5899 75.1183 79.7426 70.9907 79.1077 66.8632C78.0492 60.1956 80.9067 55.6447 87.2566 53.528C104.085 47.7071 120.913 41.8861 137.74 36.2769C140.174 35.4302 142.809 35.0068 146.313 34.1602Z" fill="white"/>
<path d="M54.5543 165.289C53.4958 158.516 52.0137 151.954 51.8024 145.392C51.59 140.841 54.2363 137.031 59.1052 135.549C76.8851 129.94 94.6651 124.225 112.446 118.722C119.007 116.711 119.113 116.922 120.171 123.484C120.806 127.294 121.548 131.104 121.865 135.02C122.5 141.053 119.96 145.286 114.562 146.98C95.6179 153.118 76.6738 159.045 57.623 165.077C56.9882 165.183 56.142 165.183 54.5543 165.289Z" fill="white"/>
<path d="M83.8696 119.357C83.8696 110.785 83.6583 103.482 83.9763 96.1793C84.1876 92.1576 86.8338 89.7234 90.8554 88.5592C99.428 86.0192 107.895 83.2675 117.632 80.1982C117.632 89.1942 117.843 97.2377 117.419 105.387C117.314 107.08 114.774 109.409 112.975 110.044C104.084 113.113 94.9827 115.865 83.8696 119.357Z" fill="white"/>
</svg>
